<svg xmlns="http://www.w3.org/2000/svg" viewBox="0 0 74.2 56.7"><path d="M12.1 9.9h1.5v9.6h-1.5zm-2.9 0h1.5v9.6H9.2zm-3 0h1.5v9.6H6.2zm-2.9 0h1.5v9.6H3.3zm11.8 0h1.5v9.6h-1.5zm3 0h1.5v9.6h-1.5zm2.9 0h1.5v9.6H21zm-19.3 11H24v1.5H1.7zM22.5 8.4H3.3L1.8 6.9H24l-1.5 1.5zM.3 23.9h25.3v1.5H.3zM25.5 4.5L12.9 0 .3 4.5v1.6l12.6-4.5 12.6 4.5V4.5zM45 32.4a2.7 2.7 0 011.5.4v-1.3a3.53 3.53 0 00-1.7-.4c-2 0-3 1.1-3 2.7a3.46 3.46 0 001.5 2.8l.9.7c.7.6 1.1 1 1.1 1.9s-.7 1.4-1.7 1.4a3.2 3.2 0 01-1.8-.5v1.3a3.83 3.83 0 001.9.4c2 0 3-1.1 3-2.7a3.46 3.46 0 00-1.5-2.8l-.8-.6c-.7-.6-1.1-1-1.1-1.9s.7-1.4 1.7-1.4zM.3 38.7v-7.3h1.5v7.4c0 1.5.5 2 1.6 2s1.6-.4 1.6-2v-7.4h1.5v7.3c0 2.4-1 3.4-3.1 3.4s-3.1-1-3.1-3.4zm8.1-7.4h1.7l3.3 8.3a26.35 26.35 0 01-.2-2.8v-5.5h1.4v10.5h-1.7l-3.4-8.4a26.6 26.6 0 01.3 2.8v5.5H8.4zm8.3 0h1.5v10.5h-1.5zm2.9 0h1.5l1.3 5.4c.2.8.4 2.2.6 3.3.2-1.1.4-2.5.6-3.3l1.3-5.4h1.5l-2.7 10.5h-1.5zm8.2 0h4.9v1.3h-3.5v3.2H32V37h-2.8v3.5h3.4v1.2h-4.9l.1-10.4zm6.6 0h2.4c1.9 0 3.3.7 3.3 3.1a2.57 2.57 0 01-1.8 2.8l2.2 4.5h-1.7l-2-4.3h-1v4.3h-1.4V31.3zm1.5 1.3v3.7h.8c1.2 0 1.9-.3 1.9-1.9s-.8-1.8-1.9-1.8zm12.7-1.3h1.5v10.5h-1.5zm2.8 0h6v1.3h-2.3v9.2h-1.5v-9.2h-2.2zm7.4 0h4.9v1.3h-3.4v3.2h2.8V37h-2.8v3.5h3.4v1.2h-4.9zm6.6 0h1.5v10.5h-1.5zm2.8 0h6v1.3h-2.3v9.2h-1.5v-9.2h-2.2zM0 51.3c0-4.1 1.1-5.4 3.8-5.4a5.44 5.44 0 012 .4v1.4a4.28 4.28 0 00-1.8-.5c-1.8 0-2.4.6-2.4 4.1s.5 4.2 2 4.2a2.68 2.68 0 001.1-.2v-3.5H3.1v-1.3h3v5.7a6.49 6.49 0 01-2.6.5C.6 56.8 0 55.3 0 51.3zm7.9-5.2h4.9v1.3H9.4v3.2h2.8v1.2H9.4v3.5h3.4v1.3H7.9zm6.6 0h1.7l3.3 8.4a26.35 26.35 0 01-.2-2.8v-5.6h1.4v10.5H19l-3.4-8.4a26.6 26.6 0 01.3 2.8v5.5h-1.4zm7.6 0h6v1.3h-2.3v9.2h-1.5v-9.3h-2.2z" fill="#1e64c8"/></svg>