<svg xmlns="http://www.w3.org/2000/svg" viewBox="0 0 176.8 60"><path d="M53.9 59.6H18.5A18.52 18.52 0 010 41.1V0h19.9v38.3a1.43 1.43 0 001.4 1.4H34V0h19.9v17h24.7L53.9 41.8zM2.9 2.9v38.2a15.62 15.62 0 0015.6 15.6H51V40.5l20.6-20.6H51v-17H36.9v39.7H21.3a4.33 4.33 0 01-4.3-4.3V2.9zM105 59.6h-3v-17H77.3L102 17.9V0h3v19L84.3 39.7H105v19.9zm16.2-35.9V9.1h3v14.8c0 3.1 1.1 4 3.2 4s3.2-.9 3.2-4V9.1h3v14.6c0 4.7-2 6.7-6.2 6.7s-6.2-1.9-6.2-6.7zm15.9 4.2l7.2-16.4h-7V9.1h10.3v2.1l-7.2 16.3h7.4V30h-10.7v-2.1zm-16.6 21.2c0-8.3 2.2-10.9 7.6-10.9a8 8 0 013.9.9v2.7a8.61 8.61 0 00-3.7-1c-3.5 0-4.8 1.3-4.8 8.2s1 8.3 3.9 8.3a7.12 7.12 0 002.3-.3v-6.9h-3.1v-2.5h6.1v11.3a12.61 12.61 0 01-5.2 1.1c-5.6 0-7-3-7-10.9zm15.9-10.4h9.8v2.5h-6.8v6.4h5.5v2.5h-5.5v7h6.8v2.5h-9.8zm13.3 0h3.4l6.6 16.7a49.17 49.17 0 01-.4-5.6V38.7h2.8v21h-3.4L152 42.8a33.59 33.59 0 01.5 5.7v11.1h-2.8zm15.1 0h12v2.5h-4.5v18.5h-3V41.2h-4.5z" fill="#1e64c8"/></svg>